<svg version="1" xmlns="http://www.w3.org/2000/svg" width="682.667" height="682.667" viewBox="0 0 512.000000 512.000000"><path d="M237.9 105.5c-.2.2-3.5.6-7.4.9-7.5.7-12.5 1.3-16.5 2.1-1.4.3-5.2 1-8.5 1.5-3.3.6-7.4 1.5-9.2 2.1-1.7.6-4.3 1.2-5.7 1.5-3.6.6-22.2 6.7-28.7 9.4-18.9 7.8-39.8 19.4-53.3 29.6-3.9 2.9-7.6 5.7-8.1 6.1-4.1 3.1-16.9 14.9-22 20.2-3.3 3.5-6.9 7.3-8 8.5-2.7 2.8-12 14.7-13 16.6-.4.8 2-1.3 5.4-4.8 23.9-24.5 62.5-46.1 100.6-56.2 30.6-8.2 58.1-10.1 92.8-6.5 5.6.6 20.2 3.4 27.2 5.2 3.3.8 6.8 1.6 7.7 1.8.9.2 7.2 2.2 14 4.5 21.2 7 49.8 22.3 68.1 36.3 11.8 9.1 26.9 23.4 35.9 34.2 9.4 11.2 7.8 10.7 16.3 5.5 2.8-1.6 5.7-3.3 6.5-3.7.8-.3 3.1-1.6 5-2.8 1.9-1.2 5.5-3.3 8-4.7 9.6-5.4 11-6.3 11-7.3-.1-2.1-14.8-19.4-25.9-30.5-25.9-25.7-58.9-45.7-95.1-57.6-12.3-4.1-32.2-8.6-44-10-2.5-.3-5.6-.7-7-1-2.8-.7-45.6-1.5-46.1-.9z"/><path d="M249.7 172.6c-.1.1-3.8.4-8.2.8-18.7 1.6-26.6 3.2-44.5 9.3-8.3 2.9-26.3 11.2-26.8 12.5-.2.4-.8.8-1.2.8-1.1 0-11.7 6.8-16.8 10.7-10.2 7.9-20.9 18.4-28.5 28.2-4.6 5.8-5.6 7.9-2.3 4.6.8-.9 6.6-5 12.8-9.2 19.4-13.1 38.5-20.9 63.8-26 .8-.1 3.5-.5 6-.8 2.5-.3 6.1-.7 8-1 4.6-.7 25.3-.6 31 0 6.9.8 17.5 2.7 27.5 5 5.7 1.3 23.1 7.9 31.1 11.9 8.9 4.3 24.6 14.4 31.5 20.1 1.9 1.6 8.1 7.6 13.8 13.5l10.4 10.6 18-10.8c9.9-5.9 18.2-11 18.5-11.3.8-.8-7.2-10.7-15.4-18.9-8.1-8.2-25.2-21.5-32.7-25.5-24.2-13.1-38.4-18.2-60.7-22.1-9-1.6-34.1-3.3-35.3-2.4z"/><path d="M508 212.5c-3.3 2.1-5.7 3.5-17.5 10.1-2.7 1.5-5.1 3.2-5.3 3.6-.2.4-.8.8-1.2.8-.5 0-9 4.7-19 10.5-9.9 5.8-18.2 10.5-18.5 10.5-.3 0-1.1.5-1.8 1-1.2 1-47.3 27.9-58.7 34.2-3 1.7-5.9 3.4-6.5 3.8-.5.4-2.6 1.7-4.5 2.8-1.9 1-11.6 6.6-21.5 12.4-9.9 5.8-20 11.6-22.5 13-2.5 1.4-13.9 8.1-25.5 14.8-11.5 6.8-23 13.4-25.5 14.8-2.4 1.4-8.5 4.9-13.4 7.9-5.9 3.5-9.7 5.2-11.1 4.9-1.1-.3-13.6-7.3-27.7-15.5s-27.8-16.2-30.5-17.7c-2.6-1.4-12.7-7.2-22.3-12.9-9.6-5.6-31-18-47.5-27.5S96.4 266 95 265.1c-1.4-.8-3.4-2.1-4.5-2.7-1.1-.6-12.3-7-25-14.4-22.2-12.9-36.1-21-54.9-31.8-4.9-2.9-9.2-5.2-9.6-5.2-.4 0-.7 8.9-.7 19.9l-.1 19.8L17.9 261c9.7 5.6 28.9 16.8 42.6 24.8 13.8 8 33.8 19.7 44.5 25.9 10.7 6.1 20 11.7 20.7 12.3.7.5 1.4 1 1.7 1 .4 0 49.2 28.2 53.6 30.9 1.6 1.1 25.7 15.1 32.4 19 3.7 2.1 18.9 10.9 22.6 13.1 4.4 2.6 13 7.6 16.5 9.5l4 2.3 9-5.3c9.9-5.8 27-15.8 59.5-34.7 11.8-6.9 28.3-16.5 36.5-21.3 21.6-12.6 32.2-18.8 48-28 7.7-4.5 26.3-15.3 41.3-24.1 15-8.7 34.8-20.3 44-25.6l16.7-9.7.3-10.6c.1-5.8.1-15 0-20.4l-.3-9.8-3.5 2.2z"/><path d="M249.7 241.6c-.1.1-2.9.4-6.2.8-3.4.3-9.2 1.5-13 2.6-3.9 1.1-7.7 2.2-8.6 2.4-5.1 1.3-20.9 10.4-26.9 15.5-3.8 3.3-14 13.4-13.7 13.7.1.1 4.2-1.7 9.1-4.1 11.4-5.6 20.4-7.8 33.6-8.1 19.9-.5 36.2 4.5 51.8 16 5.7 4.2 14.2 12.5 17.6 17.2 1.3 1.8 1.5 1.8 5.5-.1 2.2-1.1 4.1-2.3 4.1-2.8 0-.4.4-.7.9-.7s5.5-2.7 11.1-6 10.4-6 10.7-6c.3 0 1.5-.8 2.9-1.9l2.3-1.8-2.2-3c-11.3-15.3-31.4-27.5-52.2-31.8-6.5-1.3-25.8-2.7-26.8-1.9z"/></svg>