<?xml version="1.0" encoding="utf-8"?>
<!-- Generator: Adobe Illustrator 23.0.6, SVG Export Plug-In . SVG Version: 6.00 Build 0)  -->
<svg version="1.1" id="Layer_1" xmlns="http://www.w3.org/2000/svg" xmlns:xlink="http://www.w3.org/1999/xlink" x="0px" y="0px"
	 viewBox="0 0 634.1 209.7" style="enable-background:new 0 0 634.1 209.7;" xml:space="preserve">
<style type="text/css">
	.st0{fill:#F8991C;}
	.st1{fill:#2D2D2D;}
</style>
<g>
	<polygon class="st0" points="558.4,80.7 634.1,33.5 634.1,46.3 558.4,93.7 482.6,46.3 482.6,33.5 	"/>
	<path class="st0" d="M558.4,21.5c-17.1,0-32.1,8.6-40.7,21.9l0,0c0.7-0.7,1.1-1.1,1.8-1.6c21.3-17.7,52-13.7,68.7,8.6l11.1-7.1l0,0
		C590.5,30.4,575.4,21.5,558.4,21.5"/>
	<path class="st0" d="M558.4,43.4c-9.3,0-17.5,4.7-22.4,11.5c4-2.9,8.6-4.4,13.5-4.4c8.2,0,15.5,4.2,20.4,11.3l10.6-6.6l0,0
		C575.9,47.9,567.7,43.4,558.4,43.4"/>
	<path class="st0" d="M507.2,24.2C538.4-0.4,582.5,6.3,606,39l0.2,0.2l11.5-7.1l0,0C605.1,12.8,583.2,0,558.4,0
		c-24.6,0-46.5,12.6-59.3,32.1C501.4,29.5,504.3,26.4,507.2,24.2"/>
</g>
<path class="st1" d="M191,119.8V74.6h14.8v44.7c0,10.9,9.1,13.5,14.2,13.5c11.1,0,14.8-6.6,14.8-10.4V74.6h14.8v70.2H241l-5.8-8
	c-4,4.9-10.6,9.3-20.4,9.3C200.7,146.2,191,136.9,191,119.8z"/>
<path class="st1" d="M359.3,49.9v95h8.4l5.5-8c4,4.9,10.6,9.5,20.4,9.5c13.1,0,24.1-8,24.1-25.7V99c0-17.7-11.1-25.7-24.8-25.7
	c-9.5,0-15.9,4.2-19.3,8.4V49.8L359.3,49.9L359.3,49.9z M389.4,132.9c-9.1,0-15.7-4.4-15.5-14l0,0V99.6c0-7.5,6-13.3,15.7-13.3
	c6.9,0,13.7,5.1,13.7,13.3v19.7C403.3,128,396.3,132.9,389.4,132.9z"/>
<path class="st1" d="M303.9,49.9v31.9c-3.3-4.2-9.7-8.4-19.3-8.4c-13.7,0-24.8,8-24.8,25.7v21.7c0,17.7,11.1,25.7,24.1,25.7
	c9.7,0,16.4-4.7,20.4-9.5l5.5,8h8.4V50h-14.3V49.9z M274.2,119.6V99.9c0-8.2,6.9-13.3,13.7-13.3c9.7,0,15.7,5.5,15.7,13.3v19.3l0,0
	c0.2,9.5-6.4,14-15.5,14C281.3,132.9,274.2,128,274.2,119.6z"/>
<path class="st1" d="M427.7,49.9h14.8v95h-14.8V49.9z"/>
<g>
	<rect x="331.6" y="74.7" class="st1" width="14.8" height="70.2"/>
	<circle class="st1" cx="339.1" cy="57.8" r="8.4"/>
</g>
<g>
	<path class="st1" d="M483.3,132.9c-10.2,0-15.1-5.3-15.1-12.6v-5.8H512V98.8c0-16.2-11.3-25.7-28.8-25.7
		c-18.2,0-29.9,10.2-29.9,26.1v21.7c0,16.2,11.7,25.7,29.9,25.7c13.5,0,23.5-5.5,27.5-14.8l-10.6-6.6
		C496.4,130.3,491,132.9,483.3,132.9z M468.2,99c0-7.3,5.1-12.4,14.6-12.4c9.5,0,14.6,5.1,14.6,12.4v4.4h-29L468.2,99L468.2,99z"/>
</g>
<path class="st1" d="M152.9,73.1c-14.4,0-23.7,5.8-27.2,14.4l11.5,7.1c4.9-7.8,9.5-8.2,15.7-8.2c9.1,0,13.1,4.2,13.1,11.1v5.5h-12.5
	c-9.1,0-31.4,3.1-31.4,22.4c0,13.7,10.4,20.6,23,20.6c10,0,17.3-4.7,21.5-9.5l5.8,8h8.6V96.4C180.8,83.1,171.5,73.1,152.9,73.1z
	 M165.9,122.5c-0.2,1.1-0.2,2.4-1.6,4.2c-2.2,3.1-8,6.2-14.6,6.2c-7.1,0-12.2-2.9-12.2-8.6c0-8.4,13.5-10.2,22.1-10.6h6.4
	L165.9,122.5L165.9,122.5z"/>
<path class="st1" d="M420.4,98.1"/>
<g>
	<path class="st0" d="M123.8,193c-0.5,0-0.9-0.2-1.2-0.5c-0.3-0.3-0.5-0.7-0.5-1.2V164c0-0.5,0.2-0.9,0.5-1.2
		c0.3-0.3,0.7-0.5,1.2-0.5s0.9,0.2,1.2,0.5c0.3,0.3,0.5,0.7,0.5,1.2v25.7h15c0.5,0,0.9,0.2,1.2,0.5c0.3,0.3,0.5,0.7,0.5,1.2
		c0,0.5-0.2,0.9-0.5,1.2c-0.3,0.3-0.7,0.5-1.2,0.5H123.8z"/>
	<path class="st0" d="M151.7,167.6c-0.6,0-1.2-0.2-1.6-0.7c-0.4-0.4-0.7-1-0.7-1.7s0.2-1.2,0.7-1.6c0.5-0.4,1-0.6,1.6-0.6
		c0.6,0,1.1,0.2,1.6,0.6c0.5,0.4,0.7,1,0.7,1.6s-0.2,1.2-0.7,1.7C152.9,167.4,152.3,167.6,151.7,167.6z M151.7,193
		c-0.5,0-0.9-0.2-1.2-0.5s-0.5-0.7-0.5-1.2v-18.2c0-0.5,0.2-0.9,0.5-1.2c0.3-0.3,0.7-0.5,1.2-0.5c0.5,0,0.9,0.2,1.2,0.5
		c0.3,0.3,0.5,0.7,0.5,1.2v18.2c0,0.5-0.2,0.9-0.5,1.2S152.2,193,151.7,193z"/>
	<path class="st0" d="M174.7,193.2c-2,0-3.9-0.5-5.5-1.4c-1.6-1-2.9-2.3-3.9-3.9c-1-1.6-1.5-3.5-1.5-5.5V164c0-0.5,0.2-0.9,0.5-1.2
		c0.3-0.3,0.7-0.5,1.2-0.5c0.5,0,0.9,0.2,1.2,0.5c0.3,0.3,0.5,0.7,0.5,1.2v11.3c0.9-1.2,2-2.1,3.4-2.9c1.4-0.7,2.9-1.1,4.6-1.1
		c2,0,3.8,0.5,5.4,1.4c1.6,1,2.8,2.3,3.7,3.9c0.9,1.7,1.4,3.5,1.4,5.6c0,2.1-0.5,4-1.4,5.6c-1,1.7-2.3,3-3.9,3.9
		C178.6,192.7,176.8,193.2,174.7,193.2z M174.7,190.2c1.5,0,2.8-0.3,3.9-1c1.2-0.7,2.1-1.6,2.7-2.8c0.7-1.2,1-2.6,1-4.1
		c0-1.5-0.3-2.8-1-4.1c-0.7-1.2-1.6-2.2-2.7-2.8c-1.2-0.7-2.5-1-3.9-1c-1.4,0-2.7,0.3-3.9,1c-1.2,0.7-2.1,1.6-2.7,2.8
		c-0.7,1.2-1,2.6-1,4.1c0,1.5,0.3,2.9,1,4.1c0.7,1.2,1.6,2.1,2.7,2.8C172,189.8,173.2,190.2,174.7,190.2z"/>
	<path class="st0" d="M196,193c-0.5,0-0.9-0.1-1.2-0.4c-0.3-0.3-0.4-0.7-0.4-1.2v-18.2c0-0.5,0.1-0.9,0.4-1.2
		c0.3-0.3,0.7-0.4,1.2-0.4s0.9,0.1,1.2,0.4c0.3,0.3,0.4,0.7,0.4,1.2v18.2c0,0.5-0.1,0.9-0.4,1.2C196.9,192.9,196.5,193,196,193z
		 M195.8,179.7c0.1-1.6,0.5-3,1.2-4.3c0.8-1.3,1.8-2.3,3.1-3c1.3-0.7,2.7-1.1,4.2-1.1c1.3,0,2.4,0.2,3.1,0.6c0.7,0.4,1,0.9,0.8,1.6
		c-0.1,0.4-0.2,0.7-0.5,0.8c-0.2,0.1-0.5,0.2-0.9,0.2c-0.3,0-0.7,0-1.1,0c-1.5-0.2-2.9-0.1-4.1,0.3c-1.2,0.4-2.2,1-2.9,1.9
		c-0.7,0.9-1.1,1.9-1.1,3.1H195.8z"/>
	<path class="st0" d="M223.3,193.2c-2,0-3.8-0.5-5.4-1.4c-1.6-1-2.8-2.3-3.7-3.9c-0.9-1.7-1.4-3.5-1.4-5.6c0-2.1,0.5-4,1.4-5.6
		c1-1.7,2.3-3,3.9-3.9c1.7-1,3.5-1.4,5.6-1.4c2,0,3.9,0.5,5.5,1.4c1.6,1,2.9,2.3,3.9,3.9c1,1.7,1.5,3.5,1.5,5.6l-1.3,0.6
		c0,1.9-0.4,3.7-1.3,5.3c-0.9,1.6-2.1,2.8-3.6,3.7C226.9,192.8,225.2,193.2,223.3,193.2z M223.7,190.2c1.4,0,2.7-0.3,3.9-1
		s2.1-1.6,2.7-2.8c0.7-1.2,1-2.6,1-4.1c0-1.5-0.3-2.9-1-4.1c-0.7-1.2-1.6-2.1-2.7-2.8c-1.2-0.7-2.5-1-3.9-1c-1.4,0-2.7,0.3-3.9,1
		c-1.2,0.7-2.1,1.6-2.8,2.8c-0.7,1.2-1,2.6-1,4.1c0,1.5,0.3,2.8,1,4.1c0.7,1.2,1.6,2.2,2.8,2.8C221,189.8,222.3,190.2,223.7,190.2z
		 M232.9,193c-0.5,0-0.9-0.2-1.2-0.5c-0.3-0.3-0.5-0.7-0.5-1.2v-6.5l0.7-3.5l2.6,0.9v9.1c0,0.5-0.2,0.9-0.5,1.2
		C233.8,192.9,233.4,193,232.9,193z"/>
	<path class="st0" d="M244.9,193c-0.5,0-0.9-0.1-1.2-0.4c-0.3-0.3-0.4-0.7-0.4-1.2v-18.2c0-0.5,0.1-0.9,0.4-1.2
		c0.3-0.3,0.7-0.4,1.2-0.4c0.5,0,0.9,0.1,1.2,0.4c0.3,0.3,0.4,0.7,0.4,1.2v18.2c0,0.5-0.1,0.9-0.4,1.2
		C245.9,192.9,245.5,193,244.9,193z M244.8,179.7c0.1-1.6,0.5-3,1.2-4.3c0.8-1.3,1.8-2.3,3.1-3c1.3-0.7,2.7-1.1,4.2-1.1
		c1.3,0,2.4,0.2,3.1,0.6c0.7,0.4,1,0.9,0.8,1.6c-0.1,0.4-0.2,0.7-0.5,0.8c-0.2,0.1-0.5,0.2-0.9,0.2c-0.3,0-0.7,0-1.1,0
		c-1.5-0.2-2.9-0.1-4.1,0.3c-1.2,0.4-2.2,1-2.9,1.9c-0.7,0.9-1.1,1.9-1.1,3.1H244.8z"/>
	<path class="st0" d="M272.7,192.3c-0.4,0.2-0.9,0.2-1.2,0.1c-0.4-0.1-0.7-0.4-0.9-0.8l-8.9-17.8c-0.2-0.4-0.2-0.8-0.1-1.2
		c0.2-0.4,0.4-0.7,0.9-0.9c0.4-0.2,0.9-0.2,1.2-0.1c0.4,0.1,0.7,0.4,0.9,0.9l8.6,17.8c0.2,0.4,0.3,0.8,0.2,1.2
		C273.3,191.8,273.1,192.1,272.7,192.3z M268.2,202.4c-0.2,0-0.5-0.1-0.8-0.2c-1-0.4-1.2-1.1-0.8-2.1l12.5-27.7
		c0.4-0.9,1.1-1.2,2.1-0.8c1,0.4,1.2,1.1,0.8,2l-12.5,27.7C269.2,202.1,268.8,202.4,268.2,202.4z"/>
	<path class="st0" d="M305,193c-0.5,0-0.9-0.2-1.2-0.5c-0.3-0.3-0.5-0.7-0.5-1.2V164c0-0.5,0.2-0.9,0.5-1.2c0.3-0.3,0.7-0.5,1.2-0.5
		h18.3c0.5,0,0.9,0.2,1.2,0.5c0.3,0.3,0.5,0.7,0.5,1.2c0,0.4-0.2,0.8-0.5,1.1c-0.3,0.3-0.7,0.5-1.2,0.5h-16.5v10.4h12
		c0.5,0,0.9,0.2,1.2,0.5c0.3,0.3,0.5,0.7,0.5,1.1c0,0.5-0.2,0.9-0.5,1.2c-0.3,0.3-0.7,0.5-1.2,0.5h-12v10.6h16.5
		c0.5,0,0.9,0.2,1.2,0.5c0.3,0.3,0.5,0.7,0.5,1.1c0,0.5-0.2,0.9-0.5,1.2c-0.3,0.3-0.7,0.5-1.2,0.5H305z"/>
	<path class="st0" d="M331.5,193c-0.4,0-0.8-0.1-1.1-0.4c-0.3-0.3-0.4-0.6-0.4-1c0-0.4,0.1-0.8,0.5-1.2l7-8.8l1.9,2.5l-6.7,8.5
		C332.4,192.8,332,193,331.5,193z M347,193c-0.3,0-0.6,0-0.8-0.1c-0.2-0.1-0.4-0.3-0.6-0.5l-6.8-8.5l-1.3-1.1l-6.9-8.5
		c-0.3-0.4-0.5-0.8-0.5-1.2c0-0.4,0.1-0.8,0.4-1.1c0.2-0.3,0.6-0.5,1.1-0.5c0.5,0,0.9,0.2,1.3,0.6l6.7,8.3l1.1,0.9l7.3,9.2
		c0.4,0.4,0.5,0.9,0.5,1.3c0,0.4-0.2,0.7-0.5,1C347.7,192.9,347.3,193,347,193z M340.9,182.8l-2.2-2.1l6.7-8.5
		c0.2-0.3,0.4-0.4,0.6-0.6c0.2-0.1,0.5-0.2,0.7-0.2c0.5,0,0.9,0.2,1.1,0.5c0.2,0.3,0.4,0.7,0.4,1.1c0,0.4-0.2,0.8-0.5,1.2
		L340.9,182.8z"/>
	<path class="st0" d="M355.1,175.1c-0.4,0-0.8-0.1-1.1-0.4c-0.3-0.3-0.4-0.6-0.4-1c0-0.4,0.1-0.8,0.4-1c0.3-0.3,0.7-0.4,1.1-0.4h9.7
		c0.4,0,0.8,0.1,1.1,0.4c0.3,0.3,0.4,0.6,0.4,1c0,0.4-0.1,0.8-0.4,1c-0.3,0.3-0.7,0.4-1.1,0.4H355.1z M364.6,193
		c-1.4,0-2.6-0.3-3.7-1c-1.1-0.7-1.9-1.6-2.5-2.7c-0.6-1.2-0.9-2.5-0.9-3.9v-19.1c0-0.5,0.2-0.9,0.5-1.2s0.7-0.5,1.2-0.5
		c0.5,0,0.9,0.2,1.2,0.5c0.3,0.3,0.5,0.7,0.5,1.2v19.1c0,1.2,0.4,2.3,1.1,3.1c0.7,0.8,1.6,1.2,2.7,1.2h1.1c0.4,0,0.8,0.2,1.1,0.5
		c0.3,0.3,0.4,0.7,0.4,1.2c0,0.5-0.2,0.9-0.5,1.2c-0.4,0.3-0.8,0.5-1.4,0.5H364.6z"/>
	<path class="st0" d="M376.6,193c-0.5,0-0.9-0.1-1.2-0.4c-0.3-0.3-0.4-0.7-0.4-1.2v-18.2c0-0.5,0.1-0.9,0.4-1.2
		c0.3-0.3,0.7-0.4,1.2-0.4c0.5,0,0.9,0.1,1.2,0.4c0.3,0.3,0.4,0.7,0.4,1.2v18.2c0,0.5-0.1,0.9-0.4,1.2
		C377.5,192.9,377.1,193,376.6,193z M376.4,179.7c0.1-1.6,0.5-3,1.2-4.3c0.8-1.3,1.8-2.3,3.1-3c1.3-0.7,2.7-1.1,4.2-1.1
		c1.3,0,2.4,0.2,3.1,0.6c0.7,0.4,1,0.9,0.8,1.6c-0.1,0.4-0.2,0.7-0.5,0.8c-0.2,0.1-0.5,0.2-0.9,0.2s-0.7,0-1.1,0
		c-1.5-0.2-2.9-0.1-4.1,0.3c-1.2,0.4-2.2,1-2.9,1.9c-0.7,0.9-1.1,1.9-1.1,3.1H376.4z"/>
	<path class="st0" d="M403.8,193.2c-2,0-3.8-0.5-5.4-1.4c-1.6-1-2.8-2.3-3.7-3.9c-0.9-1.7-1.4-3.5-1.4-5.6c0-2.1,0.5-4,1.4-5.6
		c1-1.7,2.3-3,3.9-3.9c1.7-1,3.5-1.4,5.6-1.4c2,0,3.9,0.5,5.5,1.4c1.6,1,2.9,2.3,3.9,3.9c1,1.7,1.5,3.5,1.5,5.6l-1.3,0.6
		c0,1.9-0.4,3.7-1.3,5.3c-0.9,1.6-2.1,2.8-3.6,3.7C407.4,192.8,405.7,193.2,403.8,193.2z M404.3,190.2c1.4,0,2.7-0.3,3.9-1
		c1.2-0.7,2.1-1.6,2.7-2.8c0.7-1.2,1-2.6,1-4.1c0-1.5-0.3-2.9-1-4.1c-0.7-1.2-1.6-2.1-2.7-2.8c-1.2-0.7-2.5-1-3.9-1
		c-1.4,0-2.7,0.3-3.9,1c-1.2,0.7-2.1,1.6-2.8,2.8c-0.7,1.2-1,2.6-1,4.1c0,1.5,0.3,2.8,1,4.1c0.7,1.2,1.6,2.2,2.8,2.8
		C401.6,189.8,402.8,190.2,404.3,190.2z M413.5,193c-0.5,0-0.9-0.2-1.2-0.5c-0.3-0.3-0.5-0.7-0.5-1.2v-6.5l0.7-3.5l2.6,0.9v9.1
		c0,0.5-0.2,0.9-0.5,1.2C414.4,192.9,414,193,413.5,193z"/>
	<path class="st0" d="M433.5,193.2c-2.1,0-3.9-0.5-5.6-1.4s-2.9-2.3-3.8-3.9c-0.9-1.7-1.4-3.5-1.4-5.6c0-2.1,0.5-4,1.4-5.6
		c0.9-1.7,2.1-3,3.7-3.9c1.6-1,3.4-1.4,5.4-1.4c1.6,0,3,0.3,4.4,0.9c1.3,0.6,2.5,1.5,3.5,2.8c0.3,0.4,0.4,0.7,0.3,1.1
		c-0.1,0.4-0.3,0.7-0.7,1c-0.3,0.2-0.7,0.3-1.1,0.2c-0.4-0.1-0.7-0.3-1-0.6c-1.4-1.6-3.3-2.4-5.4-2.4c-1.4,0-2.7,0.3-3.8,1
		c-1.1,0.7-1.9,1.6-2.5,2.8c-0.6,1.2-0.9,2.6-0.9,4.1c0,1.5,0.3,2.9,0.9,4.1s1.5,2.1,2.7,2.8c1.1,0.7,2.4,1,3.9,1
		c1,0,1.9-0.1,2.7-0.4c0.8-0.3,1.5-0.7,2.1-1.2c0.3-0.3,0.7-0.5,1.1-0.5c0.4,0,0.7,0.1,1,0.3c0.3,0.3,0.5,0.7,0.6,1.1
		c0.1,0.4-0.1,0.7-0.4,1.1C438.8,192.3,436.4,193.2,433.5,193.2z"/>
	<path class="st0" d="M448.9,175.1c-0.4,0-0.8-0.1-1.1-0.4c-0.3-0.3-0.4-0.6-0.4-1c0-0.4,0.1-0.8,0.4-1c0.3-0.3,0.7-0.4,1.1-0.4h9.7
		c0.4,0,0.8,0.1,1.1,0.4c0.3,0.3,0.4,0.6,0.4,1c0,0.4-0.1,0.8-0.4,1c-0.3,0.3-0.7,0.4-1.1,0.4H448.9z M458.4,193
		c-1.4,0-2.6-0.3-3.7-1c-1.1-0.7-1.9-1.6-2.5-2.7c-0.6-1.2-0.9-2.5-0.9-3.9v-19.1c0-0.5,0.2-0.9,0.5-1.2c0.3-0.3,0.7-0.5,1.2-0.5
		c0.5,0,0.9,0.2,1.2,0.5c0.3,0.3,0.5,0.7,0.5,1.2v19.1c0,1.2,0.4,2.3,1.1,3.1c0.7,0.8,1.6,1.2,2.7,1.2h1.1c0.4,0,0.8,0.2,1.1,0.5
		c0.3,0.3,0.4,0.7,0.4,1.2c0,0.5-0.2,0.9-0.5,1.2c-0.4,0.3-0.8,0.5-1.4,0.5H458.4z"/>
	<path class="st0" d="M478.6,193.2c-2.1,0-4-0.5-5.6-1.4c-1.6-0.9-2.9-2.2-3.9-3.9c-0.9-1.7-1.4-3.5-1.4-5.6c0-2.1,0.5-4,1.4-5.7
		c0.9-1.7,2.2-3,3.9-3.9c1.6-0.9,3.5-1.4,5.6-1.4c2.1,0,4,0.5,5.6,1.4c1.6,0.9,2.9,2.2,3.9,3.9c0.9,1.7,1.4,3.5,1.5,5.7
		c0,2.1-0.5,4-1.4,5.6c-0.9,1.7-2.2,3-3.9,3.9C482.5,192.7,480.7,193.2,478.6,193.2z M478.6,190.2c1.5,0,2.8-0.3,3.9-1
		c1.2-0.7,2.1-1.6,2.7-2.8c0.6-1.2,1-2.6,1-4.1c0-1.5-0.3-2.9-1-4.1c-0.6-1.2-1.5-2.2-2.7-2.8c-1.2-0.7-2.5-1-3.9-1
		c-1.5,0-2.8,0.3-3.9,1c-1.2,0.7-2.1,1.6-2.7,2.8c-0.7,1.2-1,2.6-1,4.1c0,1.5,0.3,2.9,1,4.1c0.7,1.2,1.6,2.1,2.7,2.8
		C475.8,189.8,477.1,190.2,478.6,190.2z"/>
	<path class="st0" d="M499.8,193c-0.5,0-0.9-0.1-1.2-0.4c-0.3-0.3-0.4-0.7-0.4-1.2v-18.2c0-0.5,0.1-0.9,0.4-1.2
		c0.3-0.3,0.7-0.4,1.2-0.4c0.5,0,0.9,0.1,1.2,0.4c0.3,0.3,0.4,0.7,0.4,1.2v18.2c0,0.5-0.1,0.9-0.4,1.2
		C500.7,192.9,500.3,193,499.8,193z M499.6,179.7c0.1-1.6,0.5-3,1.2-4.3c0.8-1.3,1.8-2.3,3.1-3c1.3-0.7,2.7-1.1,4.2-1.1
		c1.3,0,2.4,0.2,3.1,0.6c0.7,0.4,1,0.9,0.8,1.6c-0.1,0.4-0.2,0.7-0.5,0.8c-0.2,0.1-0.5,0.2-0.9,0.2c-0.3,0-0.7,0-1.1,0
		c-1.5-0.2-2.9-0.1-4.1,0.3c-1.2,0.4-2.2,1-2.9,1.9c-0.7,0.9-1.1,1.9-1.1,3.1H499.6z"/>
</g>
</svg>
