<svg xmlns="http://www.w3.org/2000/svg" viewBox="0 0 151.5 93.7" width="151.5" height="93.7"><defs><style>.cls-1{fill:#fff;}</style></defs><g><g><path class="cls-1" d="M75.8 80.7l75.7-47.2v12.8L75.8 93.7 0 46.3V33.5l75.8 47.2z"/><path class="cls-1" d="M75.8 21.5a48.17 48.17 0 0 0-40.7 21.9 12.94 12.94 0 0 1 1.8-1.6c21.3-17.7 52-13.7 68.7 8.6l11.1-7.1a49.82 49.82 0 0 0-40.9-21.8"/><path class="cls-1" d="M75.8 43.4a27.72 27.72 0 0 0-22.4 11.5 22.7 22.7 0 0 1 13.5-4.4c8.2 0 15.5 4.2 20.4 11.3l10.6-6.6a25.79 25.79 0 0 0-22.1-11.8M24.6 24.2C55.8-.4 99.9 6.3 123.4 39l.2.2 11.5-7.1a70.82 70.82 0 0 0-118.6 0 60.63 60.63 0 0 1 8.1-7.9"/></g></g></svg>